<?xml version="1.0" encoding="UTF-8" standalone="no"?>
<svg
   xmlns:dc="http://purl.org/dc/elements/1.1/"
   xmlns:cc="http://creativecommons.org/ns#"
   xmlns:rdf="http://www.w3.org/1999/02/22-rdf-syntax-ns#"
   xmlns:svg="http://www.w3.org/2000/svg"
   xmlns="http://www.w3.org/2000/svg"
   viewBox="0 0 149.70667 40.746666"
   height="40.746666"
   width="149.70667"
   xml:space="preserve"
   id="svg2"
   version="1.1"><metadata
     id="metadata8"><rdf:RDF><cc:Work
         rdf:about=""><dc:format>image/svg+xml</dc:format><dc:type
           rdf:resource="http://purl.org/dc/dcmitype/StillImage" /></cc:Work></rdf:RDF></metadata><defs
     id="defs6" /><g
     transform="matrix(1.3333333,0,0,-1.3333333,0,40.746667)"
     id="g10"><g
       transform="scale(0.1)"
       id="g12"><path
         id="path14"
         style="fill:#171514;fill-opacity:1;fill-rule:nonzero;stroke:none"
         d="m 1072.42,114.465 c -12.76,0 -30.39,6.258 -38.91,14.07 -12.08,-7.121 -24.76,-11.972 -37.373,-12.754 -0.508,-0.031 -1.02,-0.047 -1.532,-0.047 -9.804,0 -19.824,5.735 -19.824,18.77 l 0.262,2.371 -1.316,0.262 c 0,0 -10.02,-22.672 -42.188,-22.672 -34.269,0 -41.125,20.301 -41.125,41.922 0,11.074 0.527,22.676 0.527,36.125 0,6.328 0,20.035 -0.789,32.691 -0.793,10.813 -2.109,20.832 -5.273,25.313 4.48,1.054 8.699,2.375 12.918,2.375 11.855,0 22.402,-6.328 22.402,-16.875 0,-22.149 -0.789,-38.235 -0.789,-64.602 0,-21.355 1.582,-40.34 22.149,-40.34 24.785,0 31.902,32.168 31.902,54.844 0,17.141 -0.527,31.641 -1.316,40.867 -1.848,17.93 -4.485,23.731 -4.485,23.731 4.485,1.32 8.703,2.375 12.922,2.375 12.391,0 22.678,-6.328 22.678,-17.141 0,-24.785 -2.11,-49.305 -2.11,-79.102 0,-8.812 7.5,-18.902 18.2,-18.902 2.1,0 4.33,0.391 6.65,1.258 0.93,0.351 1.89,0.742 2.86,1.16 1.04,4.766 4.1,11.809 5.83,14.848 h 1.32 c 0,0 1.83,-3.567 5.42,-8.071 10.07,6.282 21.06,14.883 30.58,23.805 -19.29,8.719 -42.04,18.352 -42.04,44.176 0,25.312 24.25,39.285 48.78,39.285 8.98,0 31.58,-2.879 38.04,-10.43 3.04,-3.109 4.94,-7.504 4.61,-13.382 -0.44,-7.672 -8.57,-21.727 -17.11,-33.364 -1.37,-1.859 -2.91,-3.922 -4.62,-6.133 12.7,-7.222 23.1,-17.445 23.1,-35.832 0,-26.628 -25.84,-40.601 -50.35,-40.601 m 7.18,52.742 c -8.96,-9.641 -19.35,-19.602 -30.58,-28.164 6.44,-5.52 15.23,-10.344 26.3,-10.344 17.14,0 23.2,8.965 23.2,18.196 0,9.382 -8.19,15.058 -18.92,20.312 m -408.002,74.871 c -18.723,0 -28.743,-31.902 -28.743,-41.922 0,-2.109 13.45,-6.328 24.524,-6.328 11.863,0 24.785,6.594 24.785,22.938 0,12.394 -5.539,25.312 -20.566,25.312 m -431.368,0 c -18.714,0 -28.738,-31.902 -28.738,-41.922 0,-2.109 13.449,-6.328 24.524,-6.328 11.859,0 24.781,6.594 24.781,22.938 0,12.394 -5.539,25.312 -20.567,25.312 m 833.8,0.543 c -11.47,0 -19.81,-8.699 -19.81,-20.055 0,-14.543 20.04,-19.296 38.45,-28.054 5.76,8.926 14.82,21.703 14.02,28.48 -0.41,3.539 -0.37,6.012 -0.89,8.024 -2.3,3.418 -9.71,10.89 -31.01,11.589 -0.25,0.012 -0.5,0.016 -0.76,0.016 M 11.8594,116.047 c -5.53518,0 -11.601587,2.633 -11.601587,2.633 0,0 3.957027,7.121 3.957027,72.773 0,15.82 -1.05468,71.192 -1.58203,83.844 C 1.3125,300.875 0,302.984 0,302.984 c 3.16016,1.055 7.90625,2.11 13.4414,2.11 5.5391,0 11.0742,-0.528 13.7109,-4.485 7.1211,-10.546 16.875,-23.464 27.9493,-36.648 l 51.1524,-61.695 c 13.449,-16.348 23.73,-29.532 26.367,-35.071 l 1.055,1.059 c -1.055,20.828 -0.789,79.891 -2.11,107.043 -1.316,25.578 -2.636,27.949 -2.636,27.949 0,0 4.484,2.375 9.758,2.375 11.332,0 12.121,-5.539 12.121,-15.031 0,-31.899 -1.317,-62.485 -1.317,-103.879 0,-29.531 0.266,-58.801 2.371,-68.293 0,0 -5.797,-1.582 -12.914,-1.582 -3.953,0 -8.965,1.844 -12.39,7.117 -6.594,10.285 -16.875,23.469 -29.0043,37.973 l -52.207,62.488 c -13.711,16.613 -23.7305,29.531 -25.0508,34.543 l -1.0547,-1.059 c 0,-41.132 2.375,-80.679 2.375,-123.925 0,-14.239 -0.5274,-17.926 -9.7578,-17.926 m 431.3676,0 c -5.536,0 -11.602,2.633 -11.602,2.633 0,0 3.957,7.121 3.957,72.773 0,15.82 -1.055,71.192 -1.582,83.844 -1.32,25.578 -2.637,27.687 -2.637,27.687 3.164,1.055 7.91,2.11 13.446,2.11 5.539,0 11.074,-0.528 13.711,-4.485 7.121,-10.546 16.875,-23.464 27.949,-36.648 l 51.148,-61.695 c 13.446,-16.348 23.735,-29.532 26.371,-35.071 l 1.055,1.059 c -1.055,20.828 -0.789,79.891 -2.109,107.043 -1.317,25.578 -2.637,27.949 -2.637,27.949 0,0 4.484,2.375 9.758,2.375 11.328,0 12.117,-5.539 12.117,-15.031 0,-31.899 -1.309,-62.485 -1.309,-103.879 0,-29.531 0.254,-58.801 2.364,-68.293 0,0 -5.789,-1.582 -12.911,-1.582 -3.953,0 -8.964,1.844 -12.39,7.117 -6.598,10.285 -16.879,23.469 -29.008,37.973 l -52.203,62.488 c -13.711,16.613 -23.731,29.531 -25.051,34.543 l -1.055,-1.059 c 0,-41.132 2.375,-80.679 2.375,-123.925 0,-14.239 -0.527,-17.926 -9.757,-17.926 m 404.746,-0.266 c -22.149,0 -26.368,7.91 -50.887,51.68 -22.414,-38.496 -26.367,-51.414 -39.023,-51.414 -6.067,0 -12.129,0.523 -16.614,2.371 v 1.316 c 10.813,5.539 42.453,52.735 47.989,60.911 -9.754,17.929 -29.266,56.687 -44.825,68.027 v 1.316 c 0,0 8.438,2.375 19.778,2.375 20.566,0 24.785,-15.82 43.504,-50.359 9.492,15.027 17.929,29.793 22.675,38.492 4.485,7.91 7.121,11.867 20.567,11.867 9.23,0 12.656,-2.636 12.656,-2.636 v -1.321 c -11.336,-5.535 -35.066,-38.758 -48.516,-59.324 l 0.528,-0.793 c 32.433,-57.48 47.726,-68.555 47.726,-68.555 v -1.316 c 0,0 -10.285,-2.637 -15.558,-2.637 m -605.371,-1.316 c -35.329,0 -61.43,27.683 -61.43,66.441 0,36.387 23.992,73.301 62.484,73.301 34.805,0 48.516,-19.773 48.516,-37.703 0,-26.367 -27.684,-35.859 -50.887,-35.859 -15.289,0 -29,7.382 -29,7.382 L 211.23,187.5 c 0,-31.641 14.766,-53.262 41.918,-53.262 21.622,0 41.399,15.032 41.399,15.032 l 1.316,-1.321 c 0,0 -8.965,-33.484 -53.261,-33.484 m 124.964,0 c -30.847,0 -39.812,21.621 -39.812,51.148 0,17.141 1.055,36.914 1.055,46.934 0,22.414 -1.844,23.469 -12.129,26.633 v 11.074 c 11.336,0 36.386,22.144 39.812,30.844 l 6.067,-2.11 -5.274,-28.734 h 21.621 c 10.813,0 14.239,2.637 14.239,2.637 0.261,-1.582 0.261,-5.801 0.261,-7.121 0,-11.075 -5.269,-13.446 -14.761,-13.446 -2.903,0 -21.36,0.528 -21.36,0.528 0,0 -0.793,-31.114 -0.793,-51.153 0,-26.101 2.375,-48.254 22.68,-48.254 12.918,0 27.945,12.395 27.945,12.395 l 1.321,-1.055 c 0,0 -8.704,-30.32 -40.872,-30.32 m 306.403,0 c -35.332,0 -61.434,27.683 -61.434,66.441 0,36.387 23.992,73.301 62.488,73.301 34.805,0 48.516,-19.773 48.516,-37.703 0,-26.367 -27.684,-35.859 -50.887,-35.859 -15.293,0 -29.004,7.382 -29.004,7.382 l -1.054,-0.527 c 0,-31.641 14.765,-53.262 41.922,-53.262 21.621,0 41.398,15.032 41.398,15.032 l 1.316,-1.321 c 0,0 -8.964,-33.484 -53.261,-33.484" /><path
         id="path16"
         style="fill:#494849;fill-opacity:1;fill-rule:evenodd;stroke:none"
         d="m 1105.35,62.5195 c -4.85,0 -7.84,-1.8437 -11.53,-1.8437 -1.58,0 -3.34,0.3476 -5.36,1.4023 V 21.2773 c 0,-4.3906 7.03,-4.3906 7.03,-4.3906 v 37.8985 c 0,0 3.78,1.4921 8.45,1.4921 5.1,0 9.32,-2.2851 9.32,-7.1171 1.67,2.2851 2.46,4.1289 2.46,6.2382 0,4.7461 -4.22,7.1211 -10.37,7.1211 z m -55.4,-15.4804 c 0,6.164 2.91,9.7695 10.73,9.7695 7.21,0 9.67,-3.0781 9.67,-7.5625 0,-4.3125 -2.9,-6.8633 -11.25,-6.8633 -3.78,0 -9.06,1.4063 -9.15,1.582 z m 11.61,-24.4414 c -8.18,0 -11.61,3.164 -11.61,9.3281 v 6.414 c 2.12,-1.4921 6.69,-2.1093 9.67,-2.1093 12.93,0 17.77,5.8867 17.77,13.0156 0,8 -5.54,13.2734 -16.71,13.2734 -11.16,0 -17.76,-5.2734 -17.76,-14.1523 V 30.6055 c 0,-8.8867 6.95,-14.1602 18.11,-14.1602 8.61,0 16.89,3.1641 16.89,9.3164 0,1.8555 -0.71,3.8789 -2.29,6.1641 0,-6.1641 -6.43,-9.3281 -14.07,-9.3281 z m -47.13,37.5468 h -22.336 v 6.5039 c 0,6.1641 3.613,9.3282 10.026,9.3282 6.42,0 12.31,-2.2852 12.31,-7.1289 z m 7.04,10.461 c 0,6.1601 5.36,9.3281 11.78,9.3281 6.42,0 13.28,-2.2891 13.28,-7.2109 1.49,1.5859 2.37,3.2539 2.37,5.3632 0,5.5352 -7.82,8 -15.65,8 -7.12,0 -14.15,-2.9882 -17.24,-8.2656 -2.46,2.9024 -8.09,4.3086 -13.89,4.3086 -9.409,0 -17.057,-5.2734 -17.057,-14.1601 V 21.2773 c 0,-4.3906 7.031,-4.3906 7.031,-4.3906 V 54.082 h 22.336 V 21.2773 c 0,-4.3906 7.04,-4.3906 7.04,-4.3906 V 54.082 h 12.22 c 4.3,0 4.4,6.0625 4.4,6.0625 h -16.62 z M 965.719,62.0781 V 21.2773 c 0,-4.3906 7.039,-4.3906 7.039,-4.3906 v 40.7969 c 0,4.4844 -7.039,4.3945 -7.039,4.3945 z m 5.547,15.7422 h -5.547 v -5.8008 l 1.59,-1.5898 h 5.449 v 5.8086 z M 927.211,47.0391 c 0,6.164 2.902,9.7695 10.734,9.7695 7.207,0 9.668,-3.0781 9.668,-7.5625 0,-4.3125 -2.902,-6.8633 -11.25,-6.8633 -3.789,0 -9.062,1.4063 -9.152,1.582 z m 11.613,-24.4414 c -8.183,0 -11.613,3.164 -11.613,9.3281 v 6.414 c 2.109,-1.4921 6.68,-2.1093 9.68,-2.1093 12.918,0 17.754,5.8867 17.754,13.0156 0,8 -5.54,13.2734 -16.7,13.2734 -11.172,0 -17.765,-5.2734 -17.765,-14.1523 V 30.6055 c 0,-8.8867 6.945,-14.1602 18.117,-14.1602 8.613,0 16.875,3.1641 16.875,9.3164 0,1.8555 -0.703,3.8789 -2.285,6.1641 0,-6.1641 -6.418,-9.3281 -14.063,-9.3281 z m -40.097,48.0078 c 0,6.1601 5.359,9.3281 11.785,9.3281 6.418,0 13.273,-2.2891 13.273,-7.2109 1.492,1.5859 2.371,3.2539 2.371,5.3632 0,5.5352 -7.82,8 -15.644,8 -9.414,0 -18.817,-5.2773 -18.817,-14.1523 V 21.2773 c 0,-4.3906 7.032,-4.3906 7.032,-4.3906 V 54.082 h 12.226 c 4.305,0 4.395,6.0625 4.395,6.0625 H 898.727 Z M 856.969,44.5781 h -8.098 v 28.4102 h 8.098 c 9.929,0 16.875,-2.7344 16.875,-14.1602 0,-12.3125 -6.946,-14.25 -16.875,-14.25 z m 0,34.4766 H 841.488 V 21.0156 c 0,-4.3945 7.383,-4.3945 7.383,-4.3945 v 21.8945 h 8.098 c 12.918,0 24.265,4.2188 24.265,19.5196 v 1.582 c 0,15.7422 -11.347,19.4375 -24.265,19.4375 z M 778.012,48.8086 c 0,5.2734 2.023,7.5586 10.195,7.5586 9.055,0 13.723,-3.2539 13.723,-9.3281 1.758,2.7343 2.547,5.1093 2.547,7.0429 0,5.9766 -7.215,8.4375 -16.27,8.4375 -11.172,0 -17.234,-4.8359 -17.234,-13.7109 0,-18.4648 28.308,-5.8984 28.308,-18.5547 0,-4.4062 -2.019,-7.6562 -11.074,-7.6562 -9.051,0 -14.598,3.164 -14.598,9.3281 -1.671,-2.6406 -2.375,-4.836 -2.375,-6.7813 0,-6.1523 7.746,-8.6992 16.973,-8.6992 12.051,0 18.117,5.3633 18.117,13.3672 0,20.4023 -28.312,8.5273 -28.312,18.9961 z m -42.91,-1.7695 c 0,6.164 2.902,9.7695 10.722,9.7695 7.219,0 9.68,-3.0781 9.68,-7.5625 0,-4.3125 -2.902,-6.8633 -11.262,-6.8633 -3.777,0 -9.051,1.4063 -9.14,1.582 z m 11.601,-24.4414 c -8.172,0 -11.601,3.164 -11.601,9.3281 v 6.414 c 2.109,-1.4921 6.679,-2.1093 9.668,-2.1093 12.929,0 17.765,5.8867 17.765,13.0156 0,8 -5.539,13.2734 -16.711,13.2734 -11.16,0 -17.754,-5.2734 -17.754,-14.1523 V 30.6055 c 0,-8.8867 6.946,-14.1602 18.106,-14.1602 8.625,0 16.887,3.1641 16.887,9.3164 0,1.8555 -0.704,3.8789 -2.286,6.1641 0,-6.1641 -6.418,-9.3281 -14.074,-9.3281 z m -46.504,39.9218 c -5.008,0 -8.886,-1.8437 -13.105,-1.8437 -1.758,0 -3.692,0.3476 -5.711,1.4023 V 21.2773 c 0,-4.3906 7.031,-4.3906 7.031,-4.3906 v 37.8985 c 0,0 4.141,1.8476 10.555,1.8476 7.824,0 10.636,-3.164 10.636,-8.6172 V 21.2773 c 0,-4.3046 7.04,-4.3906 7.04,-4.3906 v 32.4492 c 0,10.3711 -8.446,13.1836 -16.446,13.1836 z m -47.566,0 c -5.012,0 -8.879,-1.8437 -13.098,-1.8437 -1.758,0 -3.699,0.3476 -5.722,1.4023 V 21.2773 c 0,-4.3906 7.042,-4.3906 7.042,-4.3906 v 37.8985 c 0,0 4.129,1.8476 10.547,1.8476 7.821,0 10.645,-3.164 10.645,-8.6172 V 21.2773 c 0,-4.3046 7.031,-4.3906 7.031,-4.3906 v 32.4492 c 0,10.3711 -8.437,13.1836 -16.445,13.1836 z M 615.18,24.4414 c 0,0 -3.953,-2.3711 -10.379,-2.3711 -7.559,0 -10.461,3.3399 -10.461,7.2149 0,10.4609 19.172,6.5937 20.84,12.4804 z m -10.457,38.0781 c -8.535,0 -16.094,-3.0781 -16.094,-9.0507 0,-1.8477 0.703,-4.043 2.371,-6.4297 0,6.164 5.539,9.3281 13.723,9.3281 8.172,0 10.195,-3.1641 10.195,-7.6445 -3.078,-8.4493 -27.609,-2.3829 -27.609,-19.3477 0,-9.5039 8.261,-12.9297 16.261,-12.9297 4.844,0 8.535,1.582 12.578,1.582 1.844,0 3.692,-0.2617 5.801,-1.1406 v 31.4805 c 0,8.8789 -6.066,14.1523 -17.226,14.1523 z m -43.352,0 c -10.641,0 -13.715,-4.8359 -13.715,-4.8359 0,0 0.879,2.0234 0.879,8 v 12.2266 c 0,5.4492 -6.508,5.2734 -7.035,5.2734 V 21.2773 c 0,-4.3906 7.035,-4.3906 7.035,-4.3906 v 31.3047 c 0,5.0977 5.895,8.6172 11.695,8.6172 5.45,0 9.493,-2.9023 9.493,-9.5039 V 21.2773 c 0,-4.3046 7.039,-4.3906 7.039,-4.3906 v 31.7461 c 0,8.7031 -7.129,13.8867 -15.391,13.8867 z M 523.043,31.9258 c 0,-6.1641 -2.027,-9.7695 -11.965,-9.7695 -9.933,0 -11.957,3.6054 -11.957,9.7695 v 15.1133 c 0,6.164 2.024,9.7695 11.957,9.7695 9.938,0 11.965,-3.6055 11.965,-9.7695 z m -11.965,30.5937 c -12.926,0 -18.988,-5.2734 -18.988,-14.1523 V 30.6055 c 0,-8.8867 6.062,-14.1602 18.988,-14.1602 12.93,0 18.996,5.2735 18.996,14.1602 v 17.7617 c 0,8.8789 -6.066,14.1523 -18.996,14.1523 z m -38.68,17.4141 V 16.2695 c 0,-5.539 -1.675,-13.89841 -6.773,-13.89841 C 467.559,0.613281 469.492,0 471.16,0 c 5.457,0 8.621,6.15234 8.621,13.2813 v 62.0781 c 0,4.6601 -7.383,4.5742 -7.383,4.5742 z m -88.101,-31.125 c 0,5.2734 2.019,7.5586 10.199,7.5586 9.059,0 13.719,-3.2539 13.719,-9.3281 1.758,2.7343 2.547,5.1093 2.547,7.0429 0,5.9766 -7.207,8.4375 -16.266,8.4375 -11.168,0 -17.234,-4.8359 -17.234,-13.7109 0,-18.4648 28.312,-5.8984 28.312,-18.5547 0,-4.4062 -2.019,-7.6562 -11.078,-7.6562 -9.058,0 -14.594,3.164 -14.594,9.3281 -1.675,-2.6406 -2.379,-4.836 -2.379,-6.7813 0,-6.1523 7.743,-8.6992 16.973,-8.6992 12.047,0 18.117,5.3633 18.117,13.3672 0,20.4023 -28.316,8.5273 -28.316,18.9961 z m -42.906,-1.7695 c 0,6.164 2.902,9.7695 10.726,9.7695 7.215,0 9.676,-3.0781 9.676,-7.5625 0,-4.3125 -2.902,-6.8633 -11.258,-6.8633 -3.781,0 -9.055,1.4063 -9.144,1.582 z m 11.605,-24.4414 c -8.176,0 -11.605,3.164 -11.605,9.3281 v 6.414 c 2.109,-1.4921 6.679,-2.1093 9.672,-2.1093 12.925,0 17.761,5.8867 17.761,13.0156 0,8 -5.539,13.2734 -16.707,13.2734 -11.164,0 -17.762,-5.2734 -17.762,-14.1523 V 30.6055 c 0,-8.8867 6.95,-14.1602 18.118,-14.1602 8.617,0 16.882,3.1641 16.882,9.3164 0,1.8555 -0.707,3.8789 -2.289,6.1641 0,-6.1641 -6.418,-9.3281 -14.07,-9.3281 z m -43.781,0 c -8.18,0 -11.61,3.164 -11.61,9.3281 v 15.1133 c 0,6.164 3.43,9.3281 11.61,9.3281 6.328,0 12.308,-3.1641 12.308,-9.3281 7.036,10.207 -2.546,15.4804 -12.835,15.4804 -11.168,0 -18.118,-5.2734 -18.118,-14.1523 V 30.6055 c 0,-8.8867 6.95,-14.1602 18.118,-14.1602 11.167,0 21.628,5.2735 14.593,15.4805 0,-6.1641 -6.418,-9.3281 -14.066,-9.3281 z m -31.563,55.2226 h -5.543 v -5.8008 l 1.582,-1.5898 h 5.454 v 5.8086 z M 272.109,62.0781 V 21.2773 c 0,-4.3906 7.036,-4.3906 7.036,-4.3906 v 40.7969 c 0,4.4844 -7.036,4.3945 -7.036,4.3945 z M 256.02,57.6836 254.262,42.9961 c -1.492,-12.2148 -9.848,-19.4336 -9.848,-19.4336 0,0 -8.351,7.2188 -9.848,19.4336 l -1.757,14.6875 c -0.528,4.3945 -7.297,4.3945 -7.297,4.3945 l 1.758,-17.1445 c 2.023,-20.0508 16.968,-28.9258 17.144,-29.0156 0.176,0.0898 15.125,8.9648 17.149,29.0156 l 1.757,17.1445 c 0,0 -6.773,0 -7.3,-4.3945 z m -43.52,4.8359 c -4.836,0 -7.828,-1.8437 -11.52,-1.8437 -1.582,0 -3.339,0.3476 -5.359,1.4023 V 21.2773 c 0,-4.3906 7.031,-4.3906 7.031,-4.3906 v 37.8985 c 0,0 3.786,1.4921 8.442,1.4921 5.101,0 9.32,-2.2851 9.32,-7.1171 1.672,2.2851 2.461,4.1289 2.461,6.2382 0,4.7461 -4.219,7.1211 -10.375,7.1211 z M 157.109,47.0391 c 0,6.164 2.903,9.7695 10.727,9.7695 7.207,0 9.676,-3.0781 9.676,-7.5625 0,-4.3125 -2.907,-6.8633 -11.258,-6.8633 -3.781,0 -9.059,1.4063 -9.145,1.582 z m 11.606,-24.4414 c -8.18,0 -11.606,3.164 -11.606,9.3281 v 6.414 c 2.11,-1.4921 6.68,-2.1093 9.672,-2.1093 12.926,0 17.758,5.8867 17.758,13.0156 0,8 -5.535,13.2734 -16.703,13.2734 -11.164,0 -17.762,-5.2734 -17.762,-14.1523 V 30.6055 c 0,-8.8867 6.946,-14.1602 18.114,-14.1602 8.621,0 16.886,3.1641 16.886,9.3164 0,1.8555 -0.711,3.8789 -2.293,6.1641 0,-6.1641 -6.414,-9.3281 -14.066,-9.3281 z m -67.348,40.625 c 0,7.7461 6.153,10.3789 15.649,10.3789 9.937,0 19.257,-1.4922 19.257,-10.7305 1.407,2.8125 2.024,5.1875 2.024,7.1289 0,8.3477 -10.817,10.1055 -21.281,10.1055 -12.922,0 -23.3871,-4.1289 -23.3871,-17.6719 0,-23.6563 39.0431,-9.3203 39.0431,-27.7852 0,-7.0312 -5.277,-11.6992 -15.215,-11.6992 -9.937,0 -20.4882,1.4922 -20.4882,10.7344 -1.4063,-2.7266 -2.0235,-5.0977 -2.0235,-7.043 0,-8.4375 12.0467,-10.1953 22.5117,-10.1953 12.93,0 22.949,6.2383 22.949,18.6445 0,26.2891 -39.039,11.5118 -39.039,28.1329 z m -77.1092,15.832 c -5.9805,0 -7.5625,1.3164 -7.5625,1.3164 0,-2.6367 0.7891,-7.3828 6.1563,-7.3828 H 36.7422 V 21.0156 c 0,-4.3945 7.3906,-4.3945 7.3906,-4.3945 v 56.3672 h 14.1524 c 5.3671,0 6.1601,4.7461 6.1601,7.3828 0,0 -1.5859,-1.3164 -7.5664,-1.3164 z M 2.10547,79.9336 v -58.918 c 0,-4.3945 7.38281,-4.3945 7.38281,-4.3945 v 58.9141 c 0,4.3984 -7.38281,4.3984 -7.38281,4.3984" /></g></g></svg>